<svg xmlns="http://www.w3.org/2000/svg" viewBox="0 0 156.65 76.27"><defs><style>.cls-1{fill:#fcd22b;}.cls-2{fill:#306ab2;}.cls-3{fill:#f5f4f4;}</style></defs><g id="Capa_2" data-name="Capa 2"><g id="Capa_1-2" data-name="Capa 1"><path class="cls-1" d="M71.93,41.55a2.2,2.2,0,0,1,1.5.56A1.88,1.88,0,0,1,74,43.53a3.33,3.33,0,0,1-.42,1.57,4.27,4.27,0,0,1-1.08,1.29,2.13,2.13,0,0,1-1.3.5c-.26,0-.38-.09-.38-.28a1.69,1.69,0,0,1,.15-.46,3.9,3.9,0,0,0,.48-2c0-.37,0-.55-.13-.55s-.28.15-.49.46a4.18,4.18,0,0,0-.54,1.1,14.59,14.59,0,0,0-.64,2.12,8.7,8.7,0,0,0-.25,1.89,3.07,3.07,0,0,0,.25,1.38.79.79,0,0,0,.71.51,2.28,2.28,0,0,0,1.12-.47,7.12,7.12,0,0,0,1.34-1.15c.17-.23.32-.34.45-.34s.3.11.3.34a4.15,4.15,0,0,1-1.18,2.88,6.72,6.72,0,0,1-1.88,1.38,4.29,4.29,0,0,1-1.89.52,3.32,3.32,0,0,1-2.45-1,3.29,3.29,0,0,1-1-2.44,8.72,8.72,0,0,1,.62-3.09,13.37,13.37,0,0,1,1.71-3.08A11.11,11.11,0,0,1,70,42.24a3.37,3.37,0,0,1,1.92-.69Z"/><path class="cls-1" d="M83.49,41c1.22,0,1.84.15,1.84.45s-.28.53-.83.55a4,4,0,0,0-1.86.6,5.36,5.36,0,0,0-1.54,1.44,7.21,7.21,0,0,0-1,2.07,7.73,7.73,0,0,0-.38,2.43,3.74,3.74,0,0,0,.63,2.26,2,2,0,0,0,1.64.86,2,2,0,0,0,1.65-1,4,4,0,0,0,.7-2.35,5,5,0,0,0-.44-2.06,4.29,4.29,0,0,0-1.28-1.62c-.24-.19-.35-.34-.35-.42s.16-.31.5-.56A6.11,6.11,0,0,1,84,43a3.47,3.47,0,0,1,1.19-.27,2.05,2.05,0,0,1,1.06.3,3,3,0,0,1,.88.87,4.23,4.23,0,0,1,.58,1.29,5.58,5.58,0,0,1,.21,1.55,7.73,7.73,0,0,1-.5,2.71,6.14,6.14,0,0,1-1.29,2.16,8.27,8.27,0,0,1-2.5,1.71,6.84,6.84,0,0,1-2.79.67,7.41,7.41,0,0,1-2.55-.47,5.24,5.24,0,0,1-2-1.23,4,4,0,0,1-1-2.93,7,7,0,0,1,.7-3,9.93,9.93,0,0,1,1.91-2.72,9.74,9.74,0,0,1,2.65-1.92A6.68,6.68,0,0,1,83.49,41Z"/><path class="cls-1" d="M102.79,49.33l-3.38,3.61a5.91,5.91,0,0,1-1,.94,1.67,1.67,0,0,1-2.15-.34,2.11,2.11,0,0,1-.51-1.44A5,5,0,0,1,95.85,51c.1-.42.31-1,.61-1.87.06-.17.12-.32.17-.44s.1-.23.13-.32l-.05,0c-.8.88-1.58,1.8-2.35,2.78-.64.8-1.15,1.39-1.53,1.79a6.18,6.18,0,0,1-1,.89A1.56,1.56,0,0,1,91,54a1.48,1.48,0,0,1-1.27-.66,3.08,3.08,0,0,1-.47-1.8,15.61,15.61,0,0,1,1.19-4.63,26.5,26.5,0,0,1,1.64-3.81,2.39,2.39,0,0,1,2-1.34,1.78,1.78,0,0,1,1.1.33,1,1,0,0,1,.44.86,9.89,9.89,0,0,1-.7,3c-.18.49-.36,1-.55,1.67l.05,0c.3-.35.79-1,1.46-1.82a26.92,26.92,0,0,1,2.63-3.06,3.24,3.24,0,0,1,2.1-1.11,1.31,1.31,0,0,1,.81.3,2.12,2.12,0,0,1,.61.79,2.5,2.5,0,0,1,.23,1,13.62,13.62,0,0,1-.77,2.84c-.1.32-.19.57-.24.75s-.11.34-.16.47l.06,0,.31-.32.3-.31L102,47c.23-.23.78-.81,1.68-1.77a10.21,10.21,0,0,1,1.39-1.41,1.64,1.64,0,0,1,1-.39,1.38,1.38,0,0,1,1.17.55,2.8,2.8,0,0,1,.4,1.62,17.45,17.45,0,0,1-.2,2.08c-.11,1.07-.19,1.91-.24,2.51s-.07,1-.07,1.27,0,.41,0,.69.06.58.11.9.11.67.2,1.06.16.84.19,1.11A1.24,1.24,0,0,1,107,56a2.4,2.4,0,0,1-1.2.32,2.59,2.59,0,0,1-1.9-1,3.68,3.68,0,0,1-.61-.88A3.78,3.78,0,0,1,103,53.4a11.65,11.65,0,0,1-.09-1.62c0-.44,0-1.35.15-2.72l0-.05Z"/><path class="cls-1" d="M115.05,45.54l.39-.75a19.16,19.16,0,0,1,1-1.67,5.72,5.72,0,0,1,.82-1,3.08,3.08,0,0,1,.85-.5,2.21,2.21,0,0,1,.89-.17,2.57,2.57,0,0,1,1.67.58,3.69,3.69,0,0,1,1.11,1.66,7.41,7.41,0,0,1,.39,2.5,9.12,9.12,0,0,1-.87,3.89,8.34,8.34,0,0,1-2.28,3,4.6,4.6,0,0,1-2.93,1.15,2.58,2.58,0,0,1-1.46-.39,3.51,3.51,0,0,1-1.08-1.33l-.08.22-.08.29c-.53,1.8-1,3.12-1.28,4a4.14,4.14,0,0,1-.82,1.55.86.86,0,0,1-.63.27,1.22,1.22,0,0,1-1.1-.72,4.33,4.33,0,0,1-.39-2,24.82,24.82,0,0,1,.29-3.41c.2-1.32.48-2.67.83-4a34.14,34.14,0,0,1,1.16-3.75,11.3,11.3,0,0,1,.92-1.81,4.54,4.54,0,0,1,1-1.12,1.34,1.34,0,0,1,.72-.21,1.16,1.16,0,0,1,.87.32,1.29,1.29,0,0,1,.31.93,6.52,6.52,0,0,1-.1,1.11c0,.4-.09.86-.14,1.38Zm-.93,5.51a1.32,1.32,0,0,0,1.31,1.05,1.71,1.71,0,0,0,1.26-.63,4.66,4.66,0,0,0,.94-1.73,7.33,7.33,0,0,0,.35-2.3,8.06,8.06,0,0,0-.14-1.65c-.09-.46-.2-.69-.31-.69s-.3.22-.63.68a15.72,15.72,0,0,0-1,1.59,21.89,21.89,0,0,0-1.56,3.1A3.67,3.67,0,0,0,114.12,51.05Z"/><path class="cls-1" d="M127.66,50.06l0,.26c0,.15,0,.36,0,.64a9.2,9.2,0,0,1-.13,1,2,2,0,0,1-.26.66,3.25,3.25,0,0,1-.47.56,2.65,2.65,0,0,1-1.82.87,1.19,1.19,0,0,1-1.09-.57,3.56,3.56,0,0,1-.35-1.83,18.32,18.32,0,0,1,.21-2.49,24.78,24.78,0,0,1,.53-2.65l.1-.33a1.36,1.36,0,0,1,.07-.33,19.05,19.05,0,0,1,.84-2.6,4.24,4.24,0,0,1,.93-1.36,1.63,1.63,0,0,1,1.08-.4c.59,0,.94.37,1.07,1.11a2.94,2.94,0,0,0,.33-.36,3.42,3.42,0,0,1,.56-.6.72.72,0,0,1,.45-.15c.71,0,1.06.73,1.06,2.19a11.16,11.16,0,0,1-.24,2.33,7.45,7.45,0,0,1-.63,1.83c-.25.47-.5.71-.74.71s-.41-.54-.41-1.61a7.71,7.71,0,0,0-.09-1.34,2,2,0,0,0-.29-.75,9.89,9.89,0,0,0-.49,3.3C127.73,49.18,127.69,49.81,127.66,50.06Z"/><path class="cls-1" d="M140.49,50.25v0l-.05,0a25.37,25.37,0,0,1-2.11,2.3,9.22,9.22,0,0,1-1.76,1.35,3.12,3.12,0,0,1-1.49.45,3,3,0,0,1-2.29-1,3.44,3.44,0,0,1-.9-2.45,6.61,6.61,0,0,1,.45-2.17,11.42,11.42,0,0,1,1.22-2.45A12.15,12.15,0,0,1,136.82,43a6.87,6.87,0,0,1,3.9-1.41,4.61,4.61,0,0,1,2.6.68,2,2,0,0,1,1,1.71,3.12,3.12,0,0,1-.51,1.61,1.45,1.45,0,0,1,.84.15q.18.15.18.69s0,.14-.06.53c0,.85-.08,1.65-.08,2.39,0,.39,0,.68,0,.88s0,.42.05.68,0,.47.08.62a5.76,5.76,0,0,0,.32,1.2,6,6,0,0,1-1.42,1.12,3.07,3.07,0,0,1-1.38.35c-1.27,0-1.91-1.11-1.91-3.33A4.54,4.54,0,0,1,140.49,50.25Zm.74-3-.24.08a5.42,5.42,0,0,1-1.28.26c-.32,0-.48-.09-.48-.26a1.53,1.53,0,0,1,.2-.48,3.92,3.92,0,0,0,.69-2.07,2.56,2.56,0,0,0-.19-1c-.12-.3-.26-.46-.41-.46s-.33.15-.6.44a12.17,12.17,0,0,0-1.82,2.67,5.69,5.69,0,0,0-.68,2.44,2.31,2.31,0,0,0,.28,1.18.81.81,0,0,0,.7.46,3,3,0,0,0,1.34-.8,22.86,22.86,0,0,0,2.2-2.11l.34-.29Z"/><path class="cls-1" d="M150,54.56a1.87,1.87,0,0,0,1.32-.75,2.28,2.28,0,0,0,.6-1.53,1.18,1.18,0,0,0-.36-.9,4.1,4.1,0,0,0-1.71-.79,5.26,5.26,0,0,1-2.56-1.33,2,2,0,0,1-.55-1.41,5.14,5.14,0,0,1,1-3,8.32,8.32,0,0,1,2.63-2.44,6.33,6.33,0,0,1,3.24-.95,3,3,0,0,1,1.48.39,3,3,0,0,1,1.1,1,2.54,2.54,0,0,1,.41,1.39,3.07,3.07,0,0,1-.45,1.52,4.28,4.28,0,0,1-1.11,1.31,2.12,2.12,0,0,1-1.28.52,1.16,1.16,0,0,1-.6-.15c-.17-.11-.25-.22-.25-.34a2.31,2.31,0,0,1,.09-.53,7.86,7.86,0,0,0,.28-1.93,2.79,2.79,0,0,0-.47-1.54,3.26,3.26,0,0,0-.79.7,3.9,3.9,0,0,0-.73,1.29,3.85,3.85,0,0,0-.29,1.39,1.2,1.2,0,0,0,.21.74,1.56,1.56,0,0,0,.67.47,10.21,10.21,0,0,0,1.4.43,9.25,9.25,0,0,1,2.21.77,3.19,3.19,0,0,1,.45.38,1.94,1.94,0,0,1,.47,1.36,3.52,3.52,0,0,1-.53,1.81,7.94,7.94,0,0,1-1.64,1.88,8,8,0,0,1-2.36,1.49,7.19,7.19,0,0,1-2.59.45,3.6,3.6,0,0,1-2.16-.56,1.82,1.82,0,0,1-.78-1.55,2.4,2.4,0,0,1,.52-1.42,4.11,4.11,0,0,1,1.29-1.16,3,3,0,0,1,1.51-.45c.37,0,.56.08.56.25a1.21,1.21,0,0,1-.16.43,3.5,3.5,0,0,0-.49,1.66A1.64,1.64,0,0,0,150,54.56Z"/><path class="cls-2" d="M59.26,44.51,55,18.13a4.65,4.65,0,0,0-4.59-3.91h-1l.6,7.55a3.56,3.56,0,0,1-3.26,3.83h-.3a3.57,3.57,0,0,1-3.54-3.27l-.64-8.12H21.87l-.69,8.13a3.57,3.57,0,0,1-3.54,3.26h-.3a3.56,3.56,0,0,1-3.25-3.85l.63-7.53H12.58a4.64,4.64,0,0,0-4.6,4l-8,53a.53.53,0,0,1,0,.13c40.8,7.86,52.21-25.9,52.21-25.9-.39,14.48-6.62,24.28-14.35,30.89A28,28,0,0,0,59.26,44.51Z"/><path class="cls-2" d="M48.17,21.91l-.86-10.73A12,12,0,0,0,35.44.08L29,0h-.16a12.1,12.1,0,0,0-12,11.05L15.86,21.9a1.8,1.8,0,0,0,1.63,1.93h.15a1.78,1.78,0,0,0,1.77-1.63l.92-10.85a8.5,8.5,0,0,1,8.45-7.79h.12l6.5.08a8.46,8.46,0,0,1,8.36,7.82l.86,10.73a1.77,1.77,0,0,0,1.76,1.64h.15A1.8,1.8,0,0,0,48.17,21.91Z"/><path class="cls-3" d="M19.33,51.92l3-10.22A5.83,5.83,0,0,1,23,40a1.91,1.91,0,0,1,.57-.47v-.05h-.18a6.11,6.11,0,0,0-1.53.42,6.66,6.66,0,0,1-1.77.45.51.51,0,0,1-.35-.09.39.39,0,0,1-.1-.31A2.62,2.62,0,0,1,20,38.87a4.28,4.28,0,0,1,.74-1.09,3,3,0,0,1,.94-.69,13.5,13.5,0,0,1,3-.67,32.78,32.78,0,0,1,4.12-.24,10,10,0,0,1,4.07.75,5.41,5.41,0,0,1,2.55,2.23,6.88,6.88,0,0,1,.87,3.56A11.65,11.65,0,0,1,35.43,47a10.81,10.81,0,0,1-2.21,3.57,11.28,11.28,0,0,1-8.6,3.41,16.19,16.19,0,0,1-3.16-.29A4.32,4.32,0,0,1,19.57,53a.79.79,0,0,1-.29-.68A1.63,1.63,0,0,1,19.33,51.92Zm8.6-12.66-2.56,9.67a4.78,4.78,0,0,0-.1.47A6.6,6.6,0,0,1,24.75,51a5.44,5.44,0,0,1-.65,1l.83,0a9.47,9.47,0,0,0,1.84-.15,4.33,4.33,0,0,0,1.37-.5,5.43,5.43,0,0,0,1.2-.91A7.63,7.63,0,0,0,31,47.87a8.24,8.24,0,0,0,.57-3.09A8,8,0,0,0,31.07,42a4.8,4.8,0,0,0-1.27-2A3,3,0,0,0,27.93,39.26Z"/><path class="cls-3" d="M39.11,41.75h0a.49.49,0,0,1-.35-.15.46.46,0,0,1-.15-.33.83.83,0,0,1,.15-.42A1.65,1.65,0,0,0,39,40a1.2,1.2,0,0,0-.17-.64,2.37,2.37,0,0,0-.57-.58,2.59,2.59,0,0,1-.48-.49.8.8,0,0,1-.12-.43.94.94,0,0,1,.32-.65,3.91,3.91,0,0,1,1-.66,2.48,2.48,0,0,1,.9-.31,1.29,1.29,0,0,1,.82.32,2.15,2.15,0,0,1,.62.86,2.81,2.81,0,0,1,.23,1.09A3.72,3.72,0,0,1,40.26,41,2.31,2.31,0,0,1,39.11,41.75Z"/></g></g></svg>