<svg xmlns="http://www.w3.org/2000/svg" viewBox="0 0 114.74 143.02"><defs><style>.cls-1{fill:#fbd22a;}.cls-2{fill:#306ab2;}.cls-3{fill:#f5f4f4;}</style></defs><g id="Capa_2" data-name="Capa 2"><g id="Capa_1-2" data-name="Capa 1"><path class="cls-1" d="M.6,136.06,3.54,125.7A6.1,6.1,0,0,1,4.2,124a1.72,1.72,0,0,1,.55-.48v0H4.58a5.66,5.66,0,0,0-1.49.42,6.42,6.42,0,0,1-1.72.46.5.5,0,0,1-.34-.09A.46.46,0,0,1,.94,124a2.64,2.64,0,0,1,.28-1.13,4.07,4.07,0,0,1,.72-1.11,2.78,2.78,0,0,1,.91-.69,11.73,11.73,0,0,1,2.92-.69,30.94,30.94,0,0,1,4-.24,9.25,9.25,0,0,1,4,.76,5.4,5.4,0,0,1,2.48,2.26,7.25,7.25,0,0,1,.84,3.61,12.15,12.15,0,0,1-.81,4.29,11,11,0,0,1-2.14,3.62,10.69,10.69,0,0,1-8.35,3.46,15.35,15.35,0,0,1-3.07-.28,4.07,4.07,0,0,1-1.83-.7.81.81,0,0,1-.28-.68A2.31,2.31,0,0,1,.6,136.06ZM9,123.22,6.47,133c0,.06,0,.22-.1.48a7.28,7.28,0,0,1-.5,1.57,6,6,0,0,1-.63,1c.23,0,.5,0,.8,0a9,9,0,0,0,1.79-.15,4.37,4.37,0,0,0,1.33-.51,5.27,5.27,0,0,0,1.16-.93A7.66,7.66,0,0,0,11.9,132a8.93,8.93,0,0,0,.55-3.14A8.32,8.32,0,0,0,12,126a4.83,4.83,0,0,0-1.23-2A2.92,2.92,0,0,0,9,123.22Z" transform="translate(-0.56)"/><path class="cls-1" d="M20.16,125.75h0a.44.44,0,0,1-.34-.16.49.49,0,0,1-.14-.33,1,1,0,0,1,.14-.43,1.64,1.64,0,0,0,.26-.85,1.23,1.23,0,0,0-.16-.65,2.43,2.43,0,0,0-.55-.59,2,2,0,0,1-.47-.5.75.75,0,0,1-.11-.43,1,1,0,0,1,.31-.66,3.79,3.79,0,0,1,.94-.67,2.27,2.27,0,0,1,.87-.31,1.2,1.2,0,0,1,.8.33,2.18,2.18,0,0,1,.6.87,3,3,0,0,1,.22,1.1A3.79,3.79,0,0,1,21.27,125,2.18,2.18,0,0,1,20.16,125.75Z" transform="translate(-0.56)"/><path class="cls-2" d="M30.58,125.72a2.28,2.28,0,0,1,1.5.57,1.87,1.87,0,0,1,.55,1.42,3.17,3.17,0,0,1-.43,1.56,3.89,3.89,0,0,1-1.07,1.29,2.1,2.1,0,0,1-1.3.51c-.26,0-.39-.1-.39-.29a1.56,1.56,0,0,1,.15-.45,3.93,3.93,0,0,0,.48-2c0-.37,0-.55-.12-.55s-.28.15-.49.46a4.35,4.35,0,0,0-.55,1.1,15.8,15.8,0,0,0-.63,2.11,8.87,8.87,0,0,0-.26,1.9,3.05,3.05,0,0,0,.26,1.38.78.78,0,0,0,.71.51,2.28,2.28,0,0,0,1.12-.47,7.12,7.12,0,0,0,1.34-1.15c.17-.23.32-.35.45-.35s.3.12.3.35A4.16,4.16,0,0,1,31,136.54a6.32,6.32,0,0,1-1.87,1.37,4.32,4.32,0,0,1-1.89.53,3.36,3.36,0,0,1-2.45-1,3.3,3.3,0,0,1-1-2.44,8.5,8.5,0,0,1,.62-3.09,13.12,13.12,0,0,1,1.7-3.08,11.11,11.11,0,0,1,2.45-2.44,3.42,3.42,0,0,1,1.93-.7Z" transform="translate(-0.56)"/><path class="cls-2" d="M42.13,125.19c1.23,0,1.85.16,1.85.46s-.28.53-.83.55a4,4,0,0,0-1.87.59,5.51,5.51,0,0,0-1.53,1.45,7.21,7.21,0,0,0-1,2.07,7.44,7.44,0,0,0-.38,2.42A3.75,3.75,0,0,0,39,135a2,2,0,0,0,1.64.86,2,2,0,0,0,1.64-1,4,4,0,0,0,.71-2.35,5,5,0,0,0-.44-2.06,4.29,4.29,0,0,0-1.28-1.62q-.36-.3-.36-.42c0-.12.17-.31.51-.56a5.67,5.67,0,0,1,1.27-.67,3.47,3.47,0,0,1,1.19-.27,2,2,0,0,1,1.05.3,2.83,2.83,0,0,1,.89.87,4.23,4.23,0,0,1,.58,1.29,5.53,5.53,0,0,1,.21,1.55,7.77,7.77,0,0,1-.5,2.71,6.14,6.14,0,0,1-1.29,2.16,8.32,8.32,0,0,1-2.51,1.71,6.74,6.74,0,0,1-2.78.66,7.31,7.31,0,0,1-2.55-.46,5.37,5.37,0,0,1-2-1.23,4.06,4.06,0,0,1-1-2.93,7,7,0,0,1,.7-3,10,10,0,0,1,4.56-4.64A6.68,6.68,0,0,1,42.13,125.19Z" transform="translate(-0.56)"/><path class="cls-2" d="M61.43,133.51l-3.37,3.61a6.71,6.71,0,0,1-1.05.94,1.64,1.64,0,0,1-.89.25,1.61,1.61,0,0,1-1.26-.59,2.07,2.07,0,0,1-.52-1.44,5,5,0,0,1,.16-1.15c.1-.42.31-1,.61-1.87a4.1,4.1,0,0,1,.17-.44l.13-.32,0-.05c-.8.88-1.58,1.8-2.35,2.77q-1,1.2-1.53,1.8a6.26,6.26,0,0,1-1,.89,1.51,1.51,0,0,1-.81.3,1.47,1.47,0,0,1-1.27-.66,3,3,0,0,1-.47-1.8,15.44,15.44,0,0,1,1.18-4.63,27.39,27.39,0,0,1,1.65-3.81,2.37,2.37,0,0,1,2-1.34,1.78,1.78,0,0,1,1.1.33,1,1,0,0,1,.44.86,10.22,10.22,0,0,1-.7,3c-.18.49-.37,1-.56,1.66l0,.06c.31-.36.8-1,1.47-1.82A26.92,26.92,0,0,1,57.11,127a3.24,3.24,0,0,1,2.1-1.11,1.27,1.27,0,0,1,.8.3,2,2,0,0,1,.61.79,2.35,2.35,0,0,1,.23,1,13.31,13.31,0,0,1-.76,2.84c-.11.32-.19.57-.25.75s-.11.34-.16.47l.07.05.3-.33.31-.3.31-.3,1.68-1.77A10.44,10.44,0,0,1,63.74,128a1.66,1.66,0,0,1,1-.38,1.35,1.35,0,0,1,1.16.55,2.73,2.73,0,0,1,.41,1.62,17.45,17.45,0,0,1-.2,2.08c-.12,1.07-.2,1.9-.24,2.51s-.07,1-.07,1.27,0,.41,0,.69.06.58.11.9.11.67.19,1.06.17.84.2,1.11a1.21,1.21,0,0,1-.65.78,2.25,2.25,0,0,1-1.19.33,2.57,2.57,0,0,1-1.9-1,3.88,3.88,0,0,1-.61-.88,3.48,3.48,0,0,1-.31-1.06,11.65,11.65,0,0,1-.09-1.62c0-.44,0-1.35.14-2.72l0-.06Z" transform="translate(-0.56)"/><path class="cls-2" d="M73.7,129.72l.39-.75a17.9,17.9,0,0,1,1-1.67,5.7,5.7,0,0,1,.83-1,2.65,2.65,0,0,1,.85-.5,2.17,2.17,0,0,1,.89-.17,2.59,2.59,0,0,1,1.67.58,3.63,3.63,0,0,1,1.11,1.66,7.35,7.35,0,0,1,.39,2.49,9.16,9.16,0,0,1-.87,3.9,8.34,8.34,0,0,1-2.29,3,4.55,4.55,0,0,1-2.92,1.15,2.58,2.58,0,0,1-1.46-.39,3.51,3.51,0,0,1-1.08-1.33l-.09.22-.07.28c-.54,1.8-1,3.13-1.28,4a4.28,4.28,0,0,1-.82,1.56.86.86,0,0,1-.63.27,1.21,1.21,0,0,1-1.1-.72,4.33,4.33,0,0,1-.39-2,23.22,23.22,0,0,1,.29-3.41c.2-1.32.47-2.67.82-4.05a34.28,34.28,0,0,1,1.17-3.76,10.42,10.42,0,0,1,.92-1.8,4.82,4.82,0,0,1,1-1.13,1.39,1.39,0,0,1,.72-.2,1.18,1.18,0,0,1,.87.32,1.33,1.33,0,0,1,.31.92,7.86,7.86,0,0,1-.1,1.12c-.05.4-.1.86-.14,1.38Zm-.93,5.5a1.31,1.31,0,0,0,1.3,1.06,1.69,1.69,0,0,0,1.27-.64,4.64,4.64,0,0,0,.94-1.73,7.51,7.51,0,0,0,.35-2.29,8.83,8.83,0,0,0-.14-1.65c-.1-.46-.2-.7-.32-.7s-.29.23-.63.69a16.17,16.17,0,0,0-1,1.58,24.48,24.48,0,0,0-1.57,3.1C72.87,134.88,72.81,135.07,72.77,135.22Z" transform="translate(-0.56)"/><path class="cls-2" d="M86.31,134.24l0,.26c0,.15,0,.36-.05.63a7.11,7.11,0,0,1-.14,1,1.79,1.79,0,0,1-.26.66,3.17,3.17,0,0,1-.47.56,2.63,2.63,0,0,1-1.81.87,1.19,1.19,0,0,1-1.09-.57,3.54,3.54,0,0,1-.36-1.83,18.55,18.55,0,0,1,.22-2.49,24.78,24.78,0,0,1,.53-2.65l.09-.34a1.54,1.54,0,0,1,.08-.32,16.24,16.24,0,0,1,.84-2.6,4.22,4.22,0,0,1,.92-1.36,1.67,1.67,0,0,1,1.09-.4c.59,0,.94.37,1.06,1.11a3.89,3.89,0,0,0,.34-.36,3.48,3.48,0,0,1,.55-.6.75.75,0,0,1,.46-.15c.71,0,1.06.73,1.06,2.19a10.53,10.53,0,0,1-.25,2.33,7.36,7.36,0,0,1-.62,1.83c-.25.47-.5.71-.75.71s-.4-.54-.4-1.61a6.7,6.7,0,0,0-.1-1.34,1.92,1.92,0,0,0-.29-.76,10.41,10.41,0,0,0-.48,3.31C86.37,133.36,86.33,134,86.31,134.24Z" transform="translate(-0.56)"/><path class="cls-2" d="M99.13,134.42v.06l0-.06a23.1,23.1,0,0,1-2.1,2.31,9.25,9.25,0,0,1-1.77,1.35,3.09,3.09,0,0,1-1.48.45,3,3,0,0,1-2.29-1,3.46,3.46,0,0,1-.9-2.45,6.78,6.78,0,0,1,.44-2.17,11.71,11.71,0,0,1,1.23-2.45,12.15,12.15,0,0,1,3.26-3.33,6.87,6.87,0,0,1,3.9-1.41,4.63,4.63,0,0,1,2.6.68,2,2,0,0,1,1,1.71,3.15,3.15,0,0,1-.51,1.61,1.45,1.45,0,0,1,.84.15c.12.1.17.33.17.69,0,0,0,.14-.06.53-.05.85-.07,1.65-.07,2.39,0,.38,0,.68,0,.87s0,.43,0,.69,0,.46.07.62a6.71,6.71,0,0,0,.33,1.2,5.85,5.85,0,0,1-1.43,1.12,3,3,0,0,1-1.38.35c-1.27,0-1.9-1.11-1.9-3.33C99.11,134.77,99.12,134.57,99.13,134.42Zm.75-2.95-.24.07a4.94,4.94,0,0,1-1.28.26c-.32,0-.48-.08-.48-.26a1.67,1.67,0,0,1,.19-.47,3.92,3.92,0,0,0,.69-2.07,2.71,2.71,0,0,0-.18-1c-.12-.31-.26-.46-.41-.46s-.33.15-.6.44a11.83,11.83,0,0,0-1.82,2.67,5.66,5.66,0,0,0-.68,2.44,2.24,2.24,0,0,0,.28,1.18.81.81,0,0,0,.7.46,3.13,3.13,0,0,0,1.34-.8,21.92,21.92,0,0,0,2.2-2.12l.33-.28Z" transform="translate(-0.56)"/><path class="cls-2" d="M108.66,138.73A1.84,1.84,0,0,0,110,138a2.31,2.31,0,0,0,.6-1.53,1.16,1.16,0,0,0-.36-.9,4.1,4.1,0,0,0-1.71-.79,5.3,5.3,0,0,1-2.56-1.33,2,2,0,0,1-.56-1.42,5.18,5.18,0,0,1,1-3,8.18,8.18,0,0,1,2.63-2.43,6.33,6.33,0,0,1,3.24-1,3,3,0,0,1,1.48.39,3,3,0,0,1,1.1,1,2.51,2.51,0,0,1,.41,1.38,3.11,3.11,0,0,1-.45,1.53,4.45,4.45,0,0,1-1.12,1.31,2.14,2.14,0,0,1-1.27.52,1.05,1.05,0,0,1-.6-.16c-.17-.1-.26-.21-.26-.33a2.45,2.45,0,0,1,.1-.53,8.38,8.38,0,0,0,.27-1.94,2.7,2.7,0,0,0-.47-1.53,4.05,4.05,0,0,0-.79.69,4.29,4.29,0,0,0-.72,1.29,3.9,3.9,0,0,0-.29,1.4,1.2,1.2,0,0,0,.21.74,1.52,1.52,0,0,0,.66.47,10,10,0,0,0,1.4.42,9.28,9.28,0,0,1,2.21.78,3.63,3.63,0,0,1,.46.37,2,2,0,0,1,.47,1.37,3.55,3.55,0,0,1-.53,1.8,7.57,7.57,0,0,1-1.64,1.88,7.88,7.88,0,0,1-2.36,1.5,7.19,7.19,0,0,1-2.59.45,3.67,3.67,0,0,1-2.16-.56,1.82,1.82,0,0,1-.78-1.55,2.45,2.45,0,0,1,.51-1.42,4.29,4.29,0,0,1,1.3-1.17,3,3,0,0,1,1.51-.45c.37,0,.55.09.55.26a1,1,0,0,1-.16.43,3.56,3.56,0,0,0-.48,1.66A1.66,1.66,0,0,0,108.66,138.73Z" transform="translate(-0.56)"/><path class="cls-2" d="M98.7,61.51,92.8,25.05a6.43,6.43,0,0,0-6.34-5.4H85l.83,10.43a4.93,4.93,0,0,1-4.5,5.3h-.42A4.94,4.94,0,0,1,76,30.86l-.89-11.21H47l-.95,11.24a4.94,4.94,0,0,1-4.89,4.5,3,3,0,0,1-.42,0,4.92,4.92,0,0,1-4.49-5.31l.88-10.41h-3a6.41,6.41,0,0,0-6.35,5.47l-11,73.2c0,.05,0,.11,0,.17C73.19,109.35,89,62.71,89,62.71c-.54,20-9.15,33.55-19.84,42.68A38.67,38.67,0,0,0,98.7,61.51Z" transform="translate(-0.56)"/><path class="cls-2" d="M83.38,30.28,82.2,15.45A16.6,16.6,0,0,0,65.8.11l-9-.11h-.21A16.72,16.72,0,0,0,40,15.26l-1.27,15A2.46,2.46,0,0,0,41,32.92h.21a2.46,2.46,0,0,0,2.44-2.25l1.27-15A11.75,11.75,0,0,1,56.59,4.92h.17l9,.11A11.71,11.71,0,0,1,77.3,15.84l1.17,14.83a2.46,2.46,0,0,0,2.44,2.26h.21A2.46,2.46,0,0,0,83.38,30.28Z" transform="translate(-0.56)"/><path class="cls-3" d="M43.53,71.73l4.18-14.11a8.07,8.07,0,0,1,.94-2.31,2.57,2.57,0,0,1,.79-.65v-.07h-.25a8.75,8.75,0,0,0-2.13.58,9.19,9.19,0,0,1-2.44.62.73.73,0,0,1-.48-.12.58.58,0,0,1-.13-.43,3.61,3.61,0,0,1,.39-1.53,6,6,0,0,1,1-1.51,4.07,4.07,0,0,1,1.3-1,17.79,17.79,0,0,1,4.15-.93A45.55,45.55,0,0,1,56.57,50a13.78,13.78,0,0,1,5.63,1,7.54,7.54,0,0,1,3.52,3.08A9.45,9.45,0,0,1,66.93,59a16.14,16.14,0,0,1-1.15,5.85,15.09,15.09,0,0,1-3.05,4.93q-4.45,4.71-11.89,4.71a22.51,22.51,0,0,1-4.36-.39,5.91,5.91,0,0,1-2.61-1,1.11,1.11,0,0,1-.41-.93A2.77,2.77,0,0,1,43.53,71.73ZM55.41,54.24,51.88,67.6c0,.08-.07.3-.14.65A8.9,8.9,0,0,1,51,70.4a7.42,7.42,0,0,1-.9,1.33c.34,0,.72,0,1.15,0a13,13,0,0,0,2.55-.21,6.21,6.21,0,0,0,1.89-.69,7.56,7.56,0,0,0,1.66-1.27,10.53,10.53,0,0,0,2.24-3.46,11.46,11.46,0,0,0,.78-4.27A11.07,11.07,0,0,0,59.76,58,6.62,6.62,0,0,0,58,55.32,4.23,4.23,0,0,0,55.41,54.24Z" transform="translate(-0.56)"/><path class="cls-3" d="M70.87,57.69h0a.64.64,0,0,1-.47-.21.63.63,0,0,1-.22-.46,1.06,1.06,0,0,1,.22-.58,2.32,2.32,0,0,0,.36-1.16,1.62,1.62,0,0,0-.23-.89,3.39,3.39,0,0,0-.78-.8,3.14,3.14,0,0,1-.67-.68,1,1,0,0,1-.16-.58,1.28,1.28,0,0,1,.44-.9,5.8,5.8,0,0,1,1.34-.92,3.21,3.21,0,0,1,1.24-.42,1.8,1.8,0,0,1,1.14.44,3.14,3.14,0,0,1,.85,1.19,3.85,3.85,0,0,1,.32,1.5,5.12,5.12,0,0,1-1.76,3.43A3.14,3.14,0,0,1,70.87,57.69Z" transform="translate(-0.56)"/></g></g></svg>